<?xml version="1.0" encoding="UTF-8" standalone="no"?>
<!-- Created with Inkscape (http://www.inkscape.org/) -->

<svg
   version="1.1"
   id="svg7200"
   xml:space="preserve"
   width="682.66669"
   height="682.66669"
   viewBox="0 0 682.66669 682.66669"
   xmlns="http://www.w3.org/2000/svg"
   xmlns:svg="http://www.w3.org/2000/svg"><defs
     id="defs7204"><clipPath
       clipPathUnits="userSpaceOnUse"
       id="clipPath7214"><path
         d="M 0,512 H 512 V 0 H 0 Z"
         id="path7212" /></clipPath></defs><g
     id="g7206"
     transform="matrix(1.3333333,0,0,-1.3333333,0,682.66667)"><g
       id="g7208"><g
         id="g7210"
         clip-path="url(#clipPath7214)"><g
           id="g7216"
           transform="translate(494.2447,177.1677)"><path
             d="m 0,0 -4.277,6.237 c -4.294,6.262 -7.328,13.301 -8.933,20.724 l -17.961,83.071 c -1.643,7.596 -4.783,14.789 -9.236,21.159 l -53.669,76.768 c -9.485,13.566 -24.271,22.48 -40.696,24.533 v 0 c -8.132,1.017 -15.96,3.731 -22.977,7.966 l -3.951,2.384 c -13.866,8.369 -30.58,10.616 -46.164,6.207 l -50.19,-14.2 c -8.545,-2.418 -16.428,-6.749 -23.051,-12.666 l -50.238,-44.879 c -7.346,-6.563 -12.916,-14.873 -16.194,-24.161 L -376.86,70.061 -206.213,-93.595 H 4.473 l 5.489,54.66 C 11.343,-25.187 7.814,-11.395 0,0"
             style="fill:#a19dae;fill-opacity:1;fill-rule:nonzero;stroke:none"
             id="path7218" /></g><g
           id="g7220"
           transform="translate(176.7073,330.3101)"><path
             d="m 0,0 c 3.278,9.289 8.849,17.599 16.194,24.161 l 50.239,44.88 c 6.622,5.916 14.505,10.247 23.05,12.665 l 50.191,14.201 c 0.307,0.087 0.617,0.154 0.925,0.236 -10.05,2.666 -20.728,2.649 -30.925,-0.236 L 59.483,81.706 C 50.938,79.288 43.055,74.957 36.433,69.041 L -13.806,24.161 C -21.151,17.599 -26.722,9.289 -30,0 l -29.323,-83.082 170.647,-163.655 h 30 L -29.323,-83.082 Z"
             style="fill:#827f98;fill-opacity:1;fill-rule:nonzero;stroke:none"
             id="path7222" /></g><g
           id="g7224"
           transform="translate(288.0312,83.5728)"><path
             d="m 0,0 h 53.387 c 0,0 9.937,86.874 61.601,134.889 2.372,2.205 0.879,6.19 -2.357,6.32 -14.637,0.59 -44.333,-1.13 -63.39,-21.985 -2.445,-2.676 -6.858,-0.602 -6.338,2.985 2.218,15.314 9.426,41.973 32.603,67.234 2.245,2.448 0.327,6.389 -2.983,6.121 -15.837,-1.283 -48.02,-8.333 -62.15,-43.519 -1.215,-3.025 -5.549,-3.025 -6.764,0 -14.13,35.186 -46.313,42.236 -62.149,43.519 -3.311,0.268 -5.229,-3.673 -2.983,-6.121 13.799,-15.04 21.936,-30.575 26.731,-43.917 z"
             style="fill:#55d47b;fill-opacity:1;fill-rule:nonzero;stroke:none"
             id="path7226" /></g><g
           id="g7228"
           transform="translate(290.0606,192.1267)"><path
             d="m 0,0 -30.066,30.879 c -3.544,3.639 -7.457,6.9 -11.676,9.729 L -72.929,61.52 c -11.399,7.642 -24.716,11.926 -38.433,12.361 l -68.697,2.181 c -19.479,0.619 -38.4,-6.558 -52.569,-19.94 l -12.588,-11.888 c -7.28,-6.876 -13.071,-15.172 -17.016,-24.376 l -14.412,-33.629 c -6.547,-15.277 -7.699,-32.328 -3.265,-48.347 l 12.853,-46.436 H -2.029 l 11.72,18.823 c 6.083,9.77 9.776,20.836 10.779,32.301 C 22.326,-36.22 14.853,-15.254 0,0"
             style="fill:#c7c5cb;fill-opacity:1;fill-rule:nonzero;stroke:none"
             id="path7230" /></g><g
           id="g7232"
           transform="translate(43.4168,178.356)"><path
             d="m 0,0 14.412,33.629 c 3.945,9.204 9.736,17.5 17.016,24.375 l 12.588,11.889 c 11.308,10.68 25.646,17.392 40.876,19.359 L 66.585,89.833 C 47.106,90.451 28.185,83.274 14.016,69.893 L 1.428,58.004 C -5.852,51.129 -11.643,42.833 -15.588,33.629 L -30,0 c -6.547,-15.277 -7.699,-32.329 -3.265,-48.348 l 12.853,-46.435 h 30 L -3.265,-48.348 C -7.699,-32.329 -6.547,-15.277 0,0"
             style="fill:#a19dae;fill-opacity:1;fill-rule:nonzero;stroke:none"
             id="path7234" /></g><g
           id="g7236"
           transform="translate(88.4318,177.578)"><path
             d="M 0,0 V -12.8"
             style="fill:none;stroke:#000000;stroke-width:15;stroke-linecap:round;stroke-linejoin:round;stroke-miterlimit:10;stroke-dasharray:none;stroke-opacity:1"
             id="path7238" /></g><g
           id="g7240"
           transform="translate(229.8782,177.578)"><path
             d="M 0,0 V -12.8"
             style="fill:none;stroke:#000000;stroke-width:15;stroke-linecap:round;stroke-linejoin:round;stroke-miterlimit:10;stroke-dasharray:none;stroke-opacity:1"
             id="path7242" /></g><g
           id="g7244"
           transform="translate(176.6104,165.6689)"><path
             d="m 0,0 c -4.118,-4.711 -10.408,-7.723 -17.455,-7.723 -7.048,0 -13.338,3.012 -17.456,7.723"
             style="fill:none;stroke:#000000;stroke-width:15;stroke-linecap:round;stroke-linejoin:round;stroke-miterlimit:10;stroke-dasharray:none;stroke-opacity:1"
             id="path7246" /></g><g
           id="g7248"
           transform="translate(222.9265,339.8403)"><path
             d="M 0,0 V -12.8"
             style="fill:none;stroke:#000000;stroke-width:15;stroke-linecap:round;stroke-linejoin:round;stroke-miterlimit:10;stroke-dasharray:none;stroke-opacity:1"
             id="path7250" /></g><g
           id="g7252"
           transform="translate(364.373,339.8403)"><path
             d="M 0,0 V -12.8"
             style="fill:none;stroke:#000000;stroke-width:15;stroke-linecap:round;stroke-linejoin:round;stroke-miterlimit:10;stroke-dasharray:none;stroke-opacity:1"
             id="path7254" /></g><g
           id="g7256"
           transform="translate(311.1051,327.9312)"><path
             d="m 0,0 c -4.118,-4.712 -10.408,-7.723 -17.455,-7.723 -7.048,0 -13.338,3.012 -17.456,7.723"
             style="fill:none;stroke:#000000;stroke-width:15;stroke-linecap:round;stroke-linejoin:round;stroke-miterlimit:10;stroke-dasharray:none;stroke-opacity:1"
             id="path7258" /></g><g
           id="g7260"
           transform="translate(494.2449,177.1677)"><path
             d="m 0,0 -4.276,6.237 c -4.295,6.263 -7.329,13.301 -8.934,20.724 l -17.961,83.071 c -1.643,7.596 -4.782,14.79 -9.236,21.159 l -53.669,76.768 c -9.485,13.566 -24.271,22.48 -40.696,24.534 -8.132,1.016 -15.96,3.73 -22.977,7.965 l -3.951,2.384 c -13.865,8.369 -30.58,10.616 -46.163,6.207 l -50.191,-14.2 c -8.545,-2.418 -16.428,-6.75 -23.05,-12.666 l -50.239,-44.879 c -7.345,-6.562 -12.916,-14.873 -16.194,-24.162 l -22.089,-62.585 54.08,-1.717 c 13.717,-0.435 27.035,-4.719 38.433,-12.361 l 31.187,-20.912 c 4.219,-2.829 8.133,-6.09 11.676,-9.729 l 30.066,-30.879 c 14.853,-15.254 22.326,-36.22 20.47,-57.43 -1.003,-11.464 -4.696,-22.531 -10.779,-32.3 l -11.72,-18.824 H 4.474 l 5.488,54.66 C 11.343,-25.187 7.814,-11.395 0,0 Z"
             style="fill:none;stroke:#000000;stroke-width:15;stroke-linecap:round;stroke-linejoin:round;stroke-miterlimit:10;stroke-dasharray:none;stroke-opacity:1"
             id="path7262" /></g><g
           id="g7264"
           transform="translate(370.6331,175.3426)"><path
             d="m 0,0 c 8.35,15.526 18.955,30.636 32.386,43.119 2.372,2.205 0.879,6.19 -2.357,6.32 -14.636,0.59 -44.333,-1.13 -63.389,-21.985 -2.445,-2.676 -6.858,-0.602 -6.339,2.985 2.219,15.314 9.427,41.973 32.603,67.235 2.246,2.447 0.328,6.389 -2.983,6.12 -15.836,-1.283 -48.019,-8.333 -62.15,-43.519 -1.214,-3.025 -5.548,-3.025 -6.763,0 -14.131,35.186 -46.314,42.236 -62.15,43.519 -3.311,0.269 -5.229,-3.673 -2.983,-6.12 13.799,-15.041 21.937,-30.576 26.732,-43.918 2.37,-1.894 4.636,-3.917 6.755,-6.093 l 30.066,-30.879 c 14.853,-15.254 22.326,-36.22 20.47,-57.43 -1.003,-11.464 -4.696,-22.531 -10.779,-32.3 L -82.602,-91.77 h 53.387 c 0,0 3.473,30.335 16.972,65.061"
             style="fill:none;stroke:#000000;stroke-width:15;stroke-linecap:round;stroke-linejoin:round;stroke-miterlimit:10;stroke-dasharray:none;stroke-opacity:1"
             id="path7266" /></g><g
           id="g7268"
           transform="translate(39.7507,231.0341)"><path
             d="m 0,0 c -4.921,-5.688 -8.947,-12.11 -11.921,-19.049 l -14.412,-33.629 c -6.548,-15.277 -7.7,-32.329 -3.266,-48.348 l 12.853,-46.435 h 265.027 l 11.72,18.823 c 6.083,9.77 9.776,20.836 10.779,32.301 1.856,21.209 -5.617,42.176 -20.469,57.43 l -30.067,30.878 c -3.543,3.64 -7.457,6.9 -11.676,9.73 l -31.187,20.911 c -11.398,7.643 -24.716,11.927 -38.433,12.362 L 70.251,37.155 C 52.459,37.72 35.146,31.764 21.481,20.535"
             style="fill:none;stroke:#000000;stroke-width:15;stroke-linecap:round;stroke-linejoin:round;stroke-miterlimit:10;stroke-dasharray:none;stroke-opacity:1"
             id="path7270" /></g></g></g></g></svg>
