<?xml version="1.0" encoding="UTF-8" standalone="no"?>
<!-- Created with Inkscape (http://www.inkscape.org/) -->

<svg
   version="1.1"
   id="svg5742"
   xml:space="preserve"
   width="682.66669"
   height="682.66669"
   viewBox="0 0 682.66669 682.66669"
   xmlns="http://www.w3.org/2000/svg"
   xmlns:svg="http://www.w3.org/2000/svg"><defs
     id="defs5746"><clipPath
       clipPathUnits="userSpaceOnUse"
       id="clipPath5756"><path
         d="M 0,512 H 512 V 0 H 0 Z"
         id="path5754" /></clipPath></defs><g
     id="g5748"
     transform="matrix(1.3333333,0,0,-1.3333333,0,682.66667)"><g
       id="g5750"><g
         id="g5752"
         clip-path="url(#clipPath5756)"><g
           id="g5758"
           transform="translate(325.543,233.0244)"><path
             d="m 0,0 138.196,59.554 c 29.709,12.808 43.413,47.272 30.613,76.98 -3.929,9.111 -14.489,13.313 -23.598,9.384 L 16.636,90.515 C 5.701,85.802 -5.437,81.592 -16.721,77.901 L -34.416,36.737 Z"
             style="fill:#b2b0bc;fill-opacity:1;fill-rule:nonzero;stroke:none"
             id="path5760" /></g><g
           id="g5762"
           transform="translate(133.3672,206.6309)"><path
             d="m 0,0 c -24.919,-10.738 -53.929,0.802 -64.667,25.721 -10.738,24.91 0.801,53.92 25.72,64.658 24.919,10.737 53.921,-0.802 64.658,-25.721 C 36.449,39.748 24.91,10.738 0,0 m 58.343,109.639 c -27.876,33.679 -75.61,46.488 -117.794,28.319 -51.338,-22.124 -74.97,-81.763 -52.651,-133.066 22.278,-51.193 82.333,-74.126 133.603,-52.037 l 75.822,32.674 21.642,55.549 -21.642,47.733 c -15.033,1.542 -29.12,8.905 -38.98,20.828"
             style="fill:#fc5c70;fill-opacity:1;fill-rule:nonzero;stroke:none"
             id="path5764" /></g><g
           id="g5766"
           transform="translate(230.6904,295.4414)"><path
             d="m 0,0 v 150.485 c 0,16.175 6.554,30.817 17.155,41.418 10.602,10.602 25.243,17.156 41.418,17.156 9.92,0 17.957,-8.037 17.957,-17.956 V 51.099 c 0,-11.906 0.536,-23.786 1.602,-35.615 L 43.379,-13.195 Z"
             style="fill:#c7c5cb;fill-opacity:1;fill-rule:nonzero;stroke:none"
             id="path5768" /></g><g
           id="g5770"
           transform="translate(200.6904,307.5498)"><path
             d="M 0,0 V -128.317 L 30,-115.39 51.642,-59.841 30,-12.108 C 19.079,-10.988 8.665,-6.781 0,0"
             style="fill:#f8485e;fill-opacity:1;fill-rule:nonzero;stroke:none"
             id="path5772" /></g><g
           id="g5774"
           transform="translate(349.0342,254.3506)"><path
             d="m 0,0 c -5.051,19.389 -8.528,39.333 -10.334,59.28 l -0.737,8.148 c -9.58,-3.997 -19.301,-7.634 -29.141,-10.853 L -57.907,15.412 -23.491,-21.326 4.376,-9.317 C 3.764,-8.463 3.192,-7.577 2.677,-6.654 1.51,-4.574 0.608,-2.33 0,0"
             style="fill:#a19dae;fill-opacity:1;fill-rule:nonzero;stroke:none"
             id="path5776" /></g><g
           id="g5778"
           transform="translate(331.6963,59.2988)"><path
             d="m 0,0 c -27.126,0 -49.199,22.072 -49.199,49.207 0,27.135 22.073,49.208 49.199,49.208 27.135,0 49.207,-22.073 49.207,-49.208 C 49.207,22.072 27.135,0 0,0 m 28.396,146.173 c -14.854,4.347 -27.186,14.369 -34.549,27.553 -2.404,4.287 -4.27,8.897 -5.539,13.763 -5.48,21.032 -9.222,42.491 -11.182,64.138 -20.657,-6.774 -41.827,-11.837 -63.312,-15.127 -4.967,-0.758 -9.945,-0.869 -14.82,-0.357 V 132.861 50.307 c 0,-55.829 44.827,-101.917 100.648,-102.105 55.957,-0.196 101.372,45.1 101.372,101.005 0,45.935 -30.655,84.703 -72.618,96.966"
             style="fill:#ff6f7f;fill-opacity:1;fill-rule:nonzero;stroke:none"
             id="path5780" /></g><g
           id="g5782"
           transform="translate(291.127,258.0898)"><path
             d="m 0,0 c 0,9.421 -7.637,17.058 -17.058,17.058 -9.42,0 -17.056,-7.637 -17.056,-17.058 0,-9.42 7.636,-17.057 17.056,-17.057 C -7.637,-17.057 0,-9.42 0,0"
             style="fill:#c7c5cb;fill-opacity:1;fill-rule:nonzero;stroke:none"
             id="path5784" /></g><g
           id="g5786"
           transform="translate(291.127,258.0898)"><path
             d="m 0,0 c 0,9.421 -7.637,17.058 -17.058,17.058 -9.42,0 -17.056,-7.637 -17.056,-17.058 0,-9.42 7.636,-17.057 17.056,-17.057 C -7.637,-17.057 0,-9.42 0,0 Z"
             style="fill:none;stroke:#000000;stroke-width:15;stroke-linecap:round;stroke-linejoin:round;stroke-miterlimit:10;stroke-dasharray:none;stroke-opacity:1"
             id="path5788" /></g><g
           id="g5790"
           transform="translate(307.2197,438.3018)"><path
             d="m 0,0 v 48.242 c 0,9.92 -8.036,17.956 -17.956,17.956 -16.175,0 -30.816,-6.553 -41.418,-17.155 C -69.976,38.441 -76.529,23.8 -76.529,7.625 V -142.86 c 4.875,-0.512 9.851,-0.401 14.82,0.357 21.484,3.29 42.653,8.352 63.312,15.127 C 0.537,-115.547 0,-103.667 0,-91.762 v 61.851"
             style="fill:none;stroke:#000000;stroke-width:15;stroke-linecap:round;stroke-linejoin:round;stroke-miterlimit:10;stroke-dasharray:none;stroke-opacity:1"
             id="path5792" /></g><g
           id="g5794"
           transform="translate(395.6201,263.2227)"><path
             d="m 0,0 68.119,29.354 c 29.709,12.81 43.412,47.274 30.612,76.982 -3.928,9.11 -14.488,13.312 -23.598,9.383 L -53.442,60.316 c -10.934,-4.712 -22.073,-8.922 -33.356,-12.613 1.96,-21.646 5.701,-43.105 11.181,-64.138 1.27,-4.866 3.137,-9.477 5.54,-13.763 L -25.526,-11"
             style="fill:none;stroke:#000000;stroke-width:15;stroke-linecap:round;stroke-linejoin:round;stroke-miterlimit:10;stroke-dasharray:none;stroke-opacity:1"
             id="path5796" /></g><g
           id="g5798"
           transform="translate(133.3662,206.6309)"><path
             d="m 0,0 c -24.919,-10.738 -53.929,0.801 -64.666,25.72 -10.738,24.911 0.801,53.921 25.72,64.658 24.919,10.738 53.92,-0.801 64.658,-25.72 C 36.45,39.748 24.911,10.738 0,0 Z m 97.324,88.811 c -15.033,1.542 -29.12,8.905 -38.98,20.828 -27.876,33.679 -75.61,46.488 -117.795,28.319 -51.338,-22.124 -74.97,-81.763 -52.65,-133.066 22.277,-51.193 82.333,-74.126 133.603,-52.037 l 75.822,32.674 z"
             style="fill:none;stroke:#000000;stroke-width:15;stroke-linecap:round;stroke-linejoin:round;stroke-miterlimit:10;stroke-dasharray:none;stroke-opacity:1"
             id="path5800" /></g><g
           id="g5802"
           transform="translate(331.6963,59.2988)"><path
             d="m 0,0 c -27.126,0 -49.199,22.072 -49.199,49.207 0,27.135 22.073,49.208 49.199,49.208 27.135,0 49.207,-22.073 49.207,-49.208 C 49.207,22.072 27.135,0 0,0 Z m 28.396,146.173 c -14.854,4.347 -27.186,14.369 -34.549,27.553 -2.404,4.287 -4.27,8.897 -5.539,13.763 -5.481,21.032 -9.222,42.491 -11.182,64.138 -20.657,-6.774 -41.827,-11.837 -63.312,-15.127 -4.968,-0.758 -9.945,-0.869 -14.82,-0.357 V 132.861 50.307 c 0,-55.829 44.827,-101.917 100.648,-102.105 55.957,-0.196 101.372,45.1 101.372,101.005 0,45.935 -30.655,84.703 -72.618,96.966 z"
             style="fill:none;stroke:#000000;stroke-width:15;stroke-linecap:round;stroke-linejoin:round;stroke-miterlimit:10;stroke-dasharray:none;stroke-opacity:1"
             id="path5804" /></g></g></g></g></svg>
